<svg width="94" height="24" viewBox="0 0 94 24" fill="none" xmlns="http://www.w3.org/2000/svg">
<path d="M92 5.80021C91.2483 6.1263 90.4534 6.34187 89.64 6.44021C90.4982 5.92753 91.1413 5.12099 91.45 4.17021C90.6436 4.65027 89.7608 4.98851 88.84 5.17021C88.2245 4.50278 87.405 4.05851 86.5098 3.90706C85.6147 3.75562 84.6945 3.90557 83.8938 4.3334C83.093 4.76123 82.4569 5.44274 82.0852 6.27105C81.7135 7.09935 81.6273 8.0276 81.84 8.91021C80.2094 8.82774 78.6144 8.40316 77.1587 7.66407C75.7029 6.92498 74.4188 5.8879 73.39 4.62021C73.0291 5.25038 72.8395 5.96403 72.84 6.69021C72.8387 7.36459 73.0042 8.02883 73.3218 8.62377C73.6393 9.21872 74.099 9.72592 74.66 10.1002C74.008 10.0825 73.3699 9.90751 72.8 9.59021V9.64021C72.8049 10.5851 73.136 11.4993 73.7373 12.2282C74.3386 12.957 75.1733 13.4559 76.1 13.6402C75.7433 13.7488 75.3729 13.806 75 13.8102C74.7419 13.8072 74.4844 13.7838 74.23 13.7402C74.4939 14.553 75.0046 15.2634 75.6911 15.7724C76.3775 16.2814 77.2056 16.5638 78.06 16.5802C76.6172 17.7155 74.8359 18.3351 73 18.3402C72.6657 18.3413 72.3317 18.3213 72 18.2802C73.8744 19.4905 76.0588 20.1329 78.29 20.1302C79.8297 20.1462 81.3571 19.8552 82.7831 19.2743C84.2091 18.6934 85.505 17.8341 86.5952 16.7467C87.6854 15.6593 88.548 14.3656 89.1326 12.9411C89.7172 11.5166 90.012 9.98994 90 8.45021C90 8.28021 90 8.10021 90 7.92021C90.7847 7.33502 91.4615 6.61763 92 5.80021Z" fill="white"/>
<path d="M56.9 2H39.1C38.8083 2 38.5285 2.11589 38.3222 2.32218C38.1159 2.52847 38 2.80826 38 3.1V20.9C38 21.0445 38.0285 21.1875 38.0837 21.321C38.139 21.4544 38.22 21.5757 38.3222 21.6778C38.4243 21.78 38.5456 21.861 38.679 21.9163C38.8125 21.9715 38.9555 22 39.1 22H48.68V14.25H46.08V11.25H48.68V9C48.6261 8.47176 48.6885 7.93813 48.8627 7.43654C49.0369 6.93495 49.3188 6.47755 49.6885 6.09641C50.0582 5.71528 50.5068 5.41964 51.0028 5.23024C51.4989 5.04083 52.0304 4.96225 52.56 5C53.3383 4.99521 54.1163 5.03528 54.89 5.12V7.82H53.3C52.04 7.82 51.8 8.42 51.8 9.29V11.22H54.8L54.41 14.22H51.8V22H56.9C57.0445 22 57.1875 21.9715 57.321 21.9163C57.4544 21.861 57.5757 21.78 57.6778 21.6778C57.78 21.5757 57.861 21.4544 57.9163 21.321C57.9715 21.1875 58 21.0445 58 20.9V3.1C58 2.95555 57.9715 2.81251 57.9163 2.67905C57.861 2.54559 57.78 2.42433 57.6778 2.32218C57.5757 2.22004 57.4544 2.13901 57.321 2.08373C57.1875 2.02845 57.0445 2 56.9 2Z" fill="white"/>
<path d="M12 7C11.0111 7 10.0444 7.29324 9.22215 7.84265C8.3999 8.39206 7.75904 9.17295 7.3806 10.0866C7.00216 11.0002 6.90315 12.0055 7.09607 12.9755C7.289 13.9454 7.7652 14.8363 8.46447 15.5355C9.16373 16.2348 10.0546 16.711 11.0245 16.9039C11.9945 17.0969 12.9998 16.9978 13.9134 16.6194C14.827 16.241 15.6079 15.6001 16.1573 14.7779C16.7068 13.9556 17 12.9889 17 12C17 10.6739 16.4732 9.40215 15.5355 8.46447C14.5979 7.52678 13.3261 7 12 7ZM12 15C11.4067 15 10.8266 14.8241 10.3333 14.4944C9.83994 14.1648 9.45542 13.6962 9.22836 13.1481C9.0013 12.5999 8.94189 11.9967 9.05764 11.4147C9.1734 10.8328 9.45912 10.2982 9.87868 9.87868C10.2982 9.45912 10.8328 9.1734 11.4147 9.05764C11.9967 8.94189 12.5999 9.0013 13.1481 9.22836C13.6962 9.45542 14.1648 9.83994 14.4944 10.3333C14.8241 10.8266 15 11.4067 15 12C15 12.7956 14.6839 13.5587 14.1213 14.1213C13.5587 14.6839 12.7956 15 12 15ZM17 6C16.8022 6 16.6089 6.05865 16.4444 6.16853C16.28 6.27841 16.1518 6.43459 16.0761 6.61732C16.0004 6.80004 15.9806 7.00111 16.0192 7.19509C16.0578 7.38907 16.153 7.56725 16.2929 7.70711C16.4327 7.84696 16.6109 7.9422 16.8049 7.98079C16.9989 8.01937 17.2 7.99957 17.3827 7.92388C17.5654 7.84819 17.7216 7.72002 17.8315 7.55557C17.9414 7.39112 18 7.19778 18 7C18 6.73478 17.8946 6.48043 17.7071 6.29289C17.5196 6.10536 17.2652 6 17 6ZM21.94 8.24C21.9234 7.38542 21.7611 6.53995 21.46 5.74C21.1808 5.01207 20.7516 4.35099 20.2003 3.7997C19.649 3.2484 18.9879 2.81922 18.26 2.54C17.4601 2.2389 16.6146 2.07657 15.76 2.06C14.79 2 14.47 2 12 2C9.53 2 9.21 2 8.24 2.06C7.38542 2.07657 6.53995 2.2389 5.74 2.54C5.01207 2.81922 4.35099 3.2484 3.7997 3.7997C3.2484 4.35099 2.81922 5.01207 2.54 5.74C2.2389 6.53995 2.07657 7.38542 2.06 8.24C2 9.22 2 9.54 2 12C2 14.46 2 14.78 2.06 15.76C2.07657 16.6146 2.2389 17.4601 2.54 18.26C2.81922 18.9879 3.2484 19.649 3.7997 20.2003C4.35099 20.7516 5.01207 21.1808 5.74 21.46C6.53995 21.7611 7.38542 21.9234 8.24 21.94C9.24 21.94 9.53 22 12 22C14.47 22 14.79 22 15.76 21.94C16.6146 21.9234 17.4601 21.7611 18.26 21.46C18.9879 21.1808 19.649 20.7516 20.2003 20.2003C20.7516 19.649 21.1808 18.9879 21.46 18.26C21.7611 17.4601 21.9234 16.6146 21.94 15.76C21.94 14.76 22 14.46 22 12C22 9.54 22 9.22 21.94 8.24ZM19.94 15.67C19.9225 16.3046 19.8043 16.9324 19.59 17.53C19.4128 18.0023 19.1327 18.4293 18.77 18.78C18.4214 19.1428 17.9936 19.4201 17.52 19.59C16.921 19.8131 16.289 19.9348 15.65 19.95C14.71 19.95 14.42 20 11.99 20C9.56 20 9.28 20 8.34 20C7.70202 19.9835 7.07075 19.8654 6.47 19.65C5.99766 19.4728 5.57067 19.1927 5.22 18.83C4.85715 18.4814 4.57992 18.0536 4.41 17.58C4.1878 16.9842 4.06615 16.3557 4.05 15.72C4.05 14.72 4.05 14.47 4.05 12.05C4.05 9.63 4.05 9.34 4.05 8.38C4.06724 7.74121 4.18884 7.10954 4.41 6.51C4.58256 6.04063 4.85953 5.61662 5.22 5.27C5.56858 4.90715 5.99641 4.62992 6.47 4.46C7.06899 4.2369 7.70099 4.11523 8.34 4.1C9.28 4 9.57 4 12 4C14.43 4 14.72 4 15.66 4C16.3021 4.01633 16.9373 4.13794 17.54 4.36C18.0094 4.53256 18.4334 4.80953 18.78 5.17C19.1428 5.51858 19.4201 5.94641 19.59 6.42C19.8348 7.02856 19.9735 7.67458 20 8.33C20 9.33 20.05 9.58 20.05 12C20.05 14.42 20 14.71 20 15.67H19.94Z" fill="white"/>
</svg>
