<svg width="92" height="24" viewBox="0 0 92 24" fill="none" xmlns="http://www.w3.org/2000/svg">
<path d="M21.7099 20.2899L17.9999 16.6099C19.44 14.8143 20.1374 12.5352 19.9487 10.2412C19.76 7.94721 18.6996 5.81269 16.9854 4.27655C15.2713 2.74041 13.0337 1.91941 10.7328 1.98237C8.43194 2.04534 6.24263 2.98747 4.61505 4.61505C2.98747 6.24263 2.04534 8.43194 1.98237 10.7328C1.91941 13.0337 2.74041 15.2713 4.27655 16.9854C5.81269 18.6996 7.94721 19.76 10.2412 19.9487C12.5352 20.1374 14.8143 19.44 16.6099 17.9999L20.2899 21.6799C20.3829 21.7736 20.4935 21.848 20.6153 21.8988C20.7372 21.9496 20.8679 21.9757 20.9999 21.9757C21.1319 21.9757 21.2626 21.9496 21.3845 21.8988C21.5063 21.848 21.6169 21.7736 21.7099 21.6799C21.8901 21.4934 21.9909 21.2442 21.9909 20.9849C21.9909 20.7256 21.8901 20.4764 21.7099 20.2899ZM10.9999 17.9999C9.61544 17.9999 8.26206 17.5894 7.11091 16.8202C5.95977 16.051 5.06256 14.9578 4.53275 13.6787C4.00293 12.3996 3.86431 10.9921 4.13441 9.63427C4.4045 8.27641 5.07119 7.02912 6.05016 6.05016C7.02912 5.07119 8.27641 4.4045 9.63427 4.13441C10.9921 3.86431 12.3996 4.00293 13.6787 4.53275C14.9578 5.06256 16.051 5.95977 16.8202 7.11091C17.5894 8.26206 17.9999 9.61544 17.9999 10.9999C17.9999 12.8564 17.2624 14.6369 15.9497 15.9497C14.6369 17.2624 12.8564 17.9999 10.9999 17.9999Z" fill="black"/>
<path d="M75.5 6.00002C75.2033 6.00002 74.9133 6.08799 74.6667 6.25281C74.42 6.41763 74.2277 6.6519 74.1142 6.92599C74.0007 7.20008 73.971 7.50168 74.0288 7.79265C74.0867 8.08362 74.2296 8.3509 74.4394 8.56068C74.6491 8.77046 74.9164 8.91332 75.2074 8.97119C75.4984 9.02907 75.8 8.99937 76.074 8.88584C76.3481 8.7723 76.5824 8.58005 76.7472 8.33337C76.912 8.0867 77 7.79669 77 7.50002C77 7.10219 76.842 6.72066 76.5607 6.43936C76.2794 6.15805 75.8978 6.00002 75.5 6.00002V6.00002ZM89.12 10.71L80.71 2.29002C80.6166 2.19734 80.5058 2.12401 80.3839 2.07425C80.2621 2.02448 80.1316 1.99926 80 2.00002H71C70.7348 2.00002 70.4804 2.10537 70.2929 2.29291C70.1054 2.48045 70 2.7348 70 3.00002V12C69.9993 12.1316 70.0245 12.2621 70.0742 12.3839C70.124 12.5058 70.1973 12.6166 70.29 12.71L78.71 21.12C79.2725 21.6818 80.035 21.9974 80.83 21.9974C81.625 21.9974 82.3875 21.6818 82.95 21.12L89.12 15C89.6818 14.4375 89.9974 13.675 89.9974 12.88C89.9974 12.085 89.6818 11.3225 89.12 10.76V10.71ZM87.71 13.53L81.53 19.7C81.3427 19.8863 81.0892 19.9908 80.825 19.9908C80.5608 19.9908 80.3074 19.8863 80.12 19.7L72 11.59V4.00002H79.59L87.71 12.12C87.8027 12.2135 87.876 12.3243 87.9258 12.4461C87.9756 12.5679 88.0008 12.6984 88 12.83C87.9989 13.0924 87.8948 13.3438 87.71 13.53V13.53Z" fill="black"/>
<path d="M49.7134 11.7093C50.6986 10.9384 51.4178 9.8813 51.7708 8.68501C52.1237 7.48872 52.093 6.21276 51.6829 5.03464C51.2727 3.85652 50.5036 2.83483 49.4823 2.11171C48.4611 1.38859 47.2387 1 45.9851 1C44.7315 1 43.509 1.38859 42.4878 2.11171C41.4666 2.83483 40.6975 3.85652 40.2873 5.03464C39.8772 6.21276 39.8464 7.48872 40.1994 8.68501C40.5524 9.8813 41.2715 10.9384 42.2568 11.7093C40.5686 12.382 39.0955 13.4976 37.9947 14.9374C36.8939 16.3771 36.2066 18.0869 36.0061 19.8846C35.9915 20.0159 36.0032 20.1487 36.0403 20.2754C36.0773 20.4022 36.1392 20.5205 36.2222 20.6235C36.39 20.8316 36.6339 20.9648 36.9005 20.994C37.167 21.0231 37.4342 20.9458 37.6434 20.779C37.8526 20.6122 37.9866 20.3695 38.0159 20.1045C38.2366 18.1508 39.1733 16.3465 40.6471 15.0362C42.1209 13.7259 44.0284 13.0016 46.0052 13.0016C47.982 13.0016 49.8895 13.7259 51.3633 15.0362C52.8371 16.3465 53.7738 18.1508 53.9944 20.1045C54.0218 20.3501 54.1396 20.5769 54.3252 20.7411C54.5108 20.9054 54.751 20.9955 54.9994 20.994H55.1099C55.3734 20.9638 55.6141 20.8314 55.7798 20.6254C55.9454 20.4195 56.0225 20.1568 55.9943 19.8946C55.7928 18.0918 55.1018 16.3776 53.9953 14.9357C52.8888 13.4937 51.4087 12.3784 49.7134 11.7093ZM45.9851 10.9997C45.1901 10.9997 44.4129 10.7653 43.7518 10.326C43.0908 9.88672 42.5756 9.26237 42.2713 8.53189C41.9671 7.8014 41.8875 6.9976 42.0426 6.22212C42.1977 5.44665 42.5805 4.73433 43.1427 4.17524C43.7049 3.61615 44.4211 3.23541 45.2009 3.08115C45.9806 2.9269 46.7889 3.00607 47.5234 3.30865C48.2579 3.61122 48.8857 4.12362 49.3274 4.78103C49.7691 5.43845 50.0048 6.21137 50.0048 7.00204C50.0048 8.06229 49.5813 9.07912 48.8275 9.82883C48.0736 10.5785 47.0512 10.9997 45.9851 10.9997Z" fill="black"/>
</svg>
