<svg xmlns="http://www.w3.org/2000/svg" viewBox="0 0 312.54 51.54"><defs><style>.cls-1{fill:#231815;}</style></defs><g id="圖層_2" data-name="圖層 2"><g id="圖層_2-2" data-name="圖層 2"><path class="cls-1" d="M0,51.54V0H38.21V8.72H10.41V20.14H36.28v8.69H10.41v14H39.2v8.68Z"/><path class="cls-1" d="M51.62,51.54V0h16.7q9.5,0,12.38.77a13.6,13.6,0,0,1,7.42,5.05,16,16,0,0,1,3,10,16.82,16.82,0,0,1-1.72,8A14.2,14.2,0,0,1,85,28.92a15.07,15.07,0,0,1-5.39,2.44,59.63,59.63,0,0,1-10.8.74H62V51.54ZM62,8.72V23.34h5.69q6.16,0,8.23-.8A6.79,6.79,0,0,0,80.38,16a6.64,6.64,0,0,0-1.65-4.64,7.23,7.23,0,0,0-4.19-2.29,50.56,50.56,0,0,0-7.48-.35Z"/><path class="cls-1" d="M103.28,51.54V0h10.41V20.29h20.39V0h10.41V51.54H134.08V29H113.69V51.54Z"/><path class="cls-1" d="M172.38,51.54V29.85L153.5,0h12.2l12.13,20.39L189.71,0h12L182.75,29.92V51.54Z"/><path class="cls-1" d="M210.5,51.54V0h21.9q8.26,0,12,1.39a11.78,11.78,0,0,1,6,4.94,14.84,14.84,0,0,1,2.25,8.12A13.72,13.72,0,0,1,249.24,24q-3.41,3.78-10.19,4.76a24.39,24.39,0,0,1,5.57,4.33,58.29,58.29,0,0,1,5.92,8.36l6.3,10.06H244.39l-7.52-11.22a71.56,71.56,0,0,0-5.49-7.57,8,8,0,0,0-3.12-2.15A17.42,17.42,0,0,0,223,30h-2.11V51.54ZM220.91,21.8h7.7q7.48,0,9.35-.64A5.59,5.59,0,0,0,240.88,19a6.72,6.72,0,0,0,1.05-3.86,6.14,6.14,0,0,0-1.39-4.2,6.38,6.38,0,0,0-3.92-2q-1.26-.17-7.59-.17h-8.12Z"/><path class="cls-1" d="M312.54,51.54H301.22l-4.5-11.71h-20.6l-4.26,11.71h-11L280.9,0h11ZM293.38,31.15,286.28,12l-7,19.13Z"/></g></g></svg>