<svg width="13" height="13" viewBox="0 0 13 13" fill="none" xmlns="http://www.w3.org/2000/svg">
<path d="M1.06438 7.01225L8.65374 7.11028L5.31156 10.3547C5.12084 10.5404 5.01177 10.7942 5.00833 11.0602C5.0049 11.3263 5.10738 11.5828 5.29324 11.7734C5.47909 11.964 5.7331 12.0729 5.99938 12.0764C6.26566 12.0798 6.5224 11.9774 6.71312 11.7917L11.7772 6.86084C11.8695 6.76699 11.9423 6.65587 11.9915 6.53385C12.0946 6.2919 12.0981 6.01907 12.0013 5.77454C11.9553 5.65128 11.8854 5.53832 11.7955 5.44212L6.86049 0.382083C6.76874 0.287239 6.65911 0.211482 6.53792 0.159186C6.41672 0.106889 6.28637 0.0790878 6.15436 0.0773828C6.02236 0.0756779 5.89133 0.100103 5.76883 0.149252C5.64632 0.198401 5.53477 0.271301 5.44061 0.363744C5.34569 0.455412 5.26987 0.564951 5.21753 0.686044C5.1652 0.807137 5.13737 0.937387 5.13567 1.06928C5.13397 1.20117 5.15842 1.3321 5.20761 1.4545C5.2568 1.5769 5.32976 1.68837 5.42228 1.78245L8.67955 5.11209L1.09018 5.01407C0.82499 5.01064 0.569297 5.11262 0.379356 5.29756C0.189416 5.48251 0.0807858 5.73527 0.0773633 6.00024C0.0739408 6.26522 0.176006 6.5207 0.361106 6.71049C0.546207 6.90028 0.799181 7.00883 1.06438 7.01225Z" fill="white"/>
</svg>
